PathFileType	4	(X/Y/Z)	/Users/itak/Documents/Research/Walk-IL/dataset/trc/00426_00167.trc
DataRate	CameraRate	NumFrames	NumMarkers	Units	OrigDataRate	OrigDataStartFrame	OrigNumFrames
100.000000	100.000000	4	53	mm	100.000000	301	602
Frame#	Time	RPSI			LPSI			L3			STRN			T10			C7			CLAV			RBAK			LBAK			LSHO			LUPA			LAEL			LAOL			LWTS			LWPS			LFRA			LIFD			LHPS			LHTS			RSHO			RUPA			RAEL			RAOL			RWTS			RWPS			RFRA			RIFD			RHTS			RHPS			RBHD			LFHD			RFHD			LBHD			LHIP			RHIP			RASI			LASI			LKNE			LTHI			LANK			LTIP			LTOE			LMT1			LMT5			LHEE			RKNE			RTHI			RANK			RTIP			RTOE			RMT1			RMT5			RHEE			
		X1	Y1	Z1	X2	Y2	Z2	X3	Y3	Z3	X4	Y4	Z4	X5	Y5	Z5	X6	Y6	Z6	X7	Y7	Z7	X8	Y8	Z8	X9	Y9	Z9	X10	Y10	Z10	X11	Y11	Z11	X12	Y12	Z12	X13	Y13	Z13	X14	Y14	Z14	X15	Y15	Z15	X16	Y16	Z16	X17	Y17	Z17	X18	Y18	Z18	X19	Y19	Z19	X20	Y20	Z20	X21	Y21	Z21	X22	Y22	Z22	X23	Y23	Z23	X24	Y24	Z24	X25	Y25	Z25	X26	Y26	Z26	X27	Y27	Z27	X28	Y28	Z28	X29	Y29	Z29	X30	Y30	Z30	X31	Y31	Z31	X32	Y32	Z32	X33	Y33	Z33	X34	Y34	Z34	X35	Y35	Z35	X36	Y36	Z36	X37	Y37	Z37	X38	Y38	Z38	X39	Y39	Z39	X40	Y40	Z40	X41	Y41	Z41	X42	Y42	Z42	X43	Y43	Z43	X44	Y44	Z44	X45	Y45	Z45	X46	Y46	Z46	X47	Y47	Z47	X48	Y48	Z48	X49	Y49	Z49	X50	Y50	Z50	X51	Y51	Z51	X52	Y52	Z52	X53	Y53	Z53	

302	3.01	-80.40851593017578	951.9834594726562	204.7780456542969	6.226102828979492	954.8955688476562	91.10709381103516	-32.75662612915039	1059.872802734375	158.2769012451172	187.4048919677734	1246.305297851562	319.8087463378906	-37.9041862487793	1184.431030273438	141.4040679931641	13.21071910858154	1450.855834960938	193.7266387939453	162.1231536865234	1361.15771484375	297.0301818847656	-98.470703125	1335.003173828125	226.9046173095703	53.21709442138672	1404.0029296875	93.78260803222656	181.8244323730469	1421.018676757812	104.6903839111328	257.117431640625	1313.093017578125	28.5596752166748	350.0462341308594	1118.117919921875	26.22530364990234	256.5547180175781	1073.204711914062	17.6020679473877	437.0960083007812	942.7337646484375	129.2988891601562	447.1017761230469	924.5117797851562	58.50265121459961	396.5188293457031	1041.752319335938	40.35011672973633	504.5324096679688	788.6082763671875	140.1410522460938	479.460205078125	852.3363647460938	69.40269470214844	484.2225341796875	866.5969848632812	138.6721649169922	-33.44651031494141	1418.618530273438	363.7881774902344	-98.51596832275391	1358.797607421875	409.6454467773438	-148.5009155273438	1075.147094726562	453.257080078125	-162.6892852783203	1054.080810546875	388.9180603027344	-19.54674530029297	890.6439208984375	494.9400329589844	-104.1718521118164	864.155029296875	499.5153503417969	-146.1761932373047	1017.301574707031	466.5773315429688	-2.233827352523804	733.8917846679688	516.336669921875	-3.644269943237305	793.8803100585938	523.5452880859375	-76.63514709472656	781.0875244140625	514.3374633789062	35.1334342956543	1645.647583007812	312.3313903808594	233.807373046875	1655.69677734375	255.17333984375	162.0057983398438	1662.292358398438	364.5207824707031	119.5992965698242	1641.360595703125	154.6254730224609	186.1034698486328	849.3515014648438	84.61649322509766	-61.9410285949707	862.1981201171875	401.7492980957031	54.19680404663086	907.5687866210938	396.7916259765625	216.9516448974609	893.93017578125	202.2848358154297	173.3083190917969	424.5963439941406	162.9491424560547	204.3816223144531	579.9761352539062	143.3524475097656	58.65496444702148	35.79255676269531	109.5182113647461	149.6270751953125	266.73974609375	150.9437408447266	166.9369049072266	37.52727890014648	317.1434936523438	98.19258117675781	45.15450286865234	282.9251098632812	177.2923889160156	40.40647888183594	200.4464721679688	-14.15327930450439	39.57851791381836	106.8926773071289	49.81364822387695	495.9526672363281	488.1768493652344	-4.191802978515625	743.536865234375	463.2491149902344	-147.4035034179688	154.2289886474609	313.6814270019531	-13.91186904907227	366.9796142578125	450.4576110839844	34.43123626708984	51.39583587646484	379.6403198242188	10.42677402496338	88.01852416992188	319.4535522460938	-66.62531280517578	81.31085968017578	389.7122192382812	-165.9630737304688	188.2046203613281	241.5469055175781	
303	3.02	-75.28837585449219	951.5130004882812	209.4035034179688	10.59926605224609	954.6400756835938	95.27680969238281	-27.74090957641602	1059.493774414062	162.1600799560547	192.8452911376953	1246.213012695312	322.8088073730469	-32.80836868286133	1184.008666992188	144.9989929199219	18.14268684387207	1450.510620117188	196.9723663330078	167.3136138916016	1361.034912109375	300.1006774902344	-93.33628082275391	1334.48974609375	230.4332885742188	58.12714767456055	1403.678955078125	97.0018310546875	186.6387329101562	1421.053955078125	107.814567565918	262.7001647949219	1313.621826171875	31.95657157897949	358.6001281738281	1120.168579101562	31.0180721282959	265.9172058105469	1073.536743164062	23.0838737487793	449.2441711425781	948.52099609375	136.939453125	459.3363037109375	928.9601440429688	66.48814392089844	406.5408325195312	1044.938598632812	46.31697082519531	519.8690795898438	796.123046875	150.9216766357422	493.1728820800781	857.6976318359375	78.80587005615234	497.9747619628906	873.6444091796875	147.7328948974609	-28.19596481323242	1418.232788085938	367.108642578125	-93.03605651855469	1358.366088867188	413.2140808105469	-141.8252258300781	1074.873413085938	458.2513427734375	-156.2744445800781	1053.119140625	394.1601867675781	-10.18218994140625	892.442138671875	500.6617736816406	-94.40933990478516	864.8980102539062	506.1795654296875	-138.6766052246094	1017.154968261719	472.0450744628906	9.462106704711914	736.2020263671875	523.4498291015625	7.396196365356445	796.2240600585938	529.9642333984375	-65.81663513183594	782.3792114257812	521.9022216796875	40.33464050292969	1645.333251953125	316.0233764648438	238.9750061035156	1655.349975585938	258.8969116210938	167.2186889648438	1661.732299804688	368.2647399902344	124.7756195068359	1641.409912109375	158.2385864257812	190.1980743408203	849.260986328125	87.46223449707031	-55.17102813720703	862.2713623046875	406.5547790527344	60.73704147338867	907.952880859375	400.5013427734375	222.0297393798828	893.6437377929688	204.8738250732422	174.5783386230469	424.3439025878906	163.5167694091797	206.6415100097656	579.7445068359375	144.8359222412109	58.66082763671875	36.09104156494141	109.6855163574219	150.2557373046875	266.6426696777344	151.2670135498047	166.9913940429688	37.46907043457031	317.1734619140625	98.2628173828125	45.17640686035156	282.9542846679688	177.2037658691406	40.28754806518555	200.4179534912109	-14.12672901153564	39.9393310546875	107.0274353027344	61.13751220703125	496.8627624511719	493.8599548339844	3.869614124298096	744.246337890625	468.25439453125	-126.8386993408203	145.1381683349609	328.8095397949219	0.604715883731842	365.1845703125	459.2612609863281	59.17553329467773	51.12429809570312	396.9212646484375	33.52164840698242	84.94765472412109	335.698974609375	-42.94784545898438	77.47612762451172	406.4828491210938	-147.06396484375	176.1911315917969	255.7647094726562	
304	3.03	-70.19166564941406	951.0106811523438	214.0182952880859	15.0089635848999	954.3736572265625	99.45657348632812	-22.73294448852539	1059.06396484375	166.0653839111328	198.2758941650391	1246.076904296875	325.8480834960938	-27.73453140258789	1183.535034179688	148.6375579833984	23.03897476196289	1450.105346679688	200.2841644287109	172.4971008300781	1360.860107421875	303.2001953125	-88.21603393554688	1333.909301757812	234.0498809814453	62.98654174804688	1403.308471679688	100.2796325683594	191.4083404541016	1421.039184570312	110.9690399169922	268.1815185546875	1314.07666015625	35.36082458496094	366.8175354003906	1122.092895507812	35.78769302368164	274.9382934570312	1073.859252929688	28.51697731018066	460.7562561035156	954.1968994140625	144.5108642578125	471.0204772949219	933.3124389648438	74.42658996582031	416.1345825195312	1048.00439453125	52.24799346923828	534.440185546875	803.6181640625	161.6455841064453	506.2864379882812	863.0051879882812	88.17728424072266	511.0112609863281	880.625	156.7418518066406	-22.94748497009277	1417.776000976562	370.5050964355469	-87.53140258789062	1357.856079101562	416.8638305664062	-135.1058959960938	1074.532592773438	463.3129272460938	-149.8326110839844	1052.130859375	399.4716796875	-0.9893990755081177	894.0592651367188	506.3128051757812	-84.82434844970703	865.5635986328125	512.7747802734375	-131.1809234619141	1016.953308105469	477.5495910644531	20.79128074645996	738.3453979492188	530.4133911132812	18.22997665405273	798.4583129882812	536.1810302734375	-55.25362014770508	783.57666015625	529.3285522460938	45.48976516723633	1644.959716796875	319.76171875	244.0895690917969	1654.9560546875	262.6547546386719	172.3904418945312	1661.129516601562	372.04150390625	129.9043426513672	1641.40234375	161.8825073242188	194.3246917724609	849.1646728515625	90.3458251953125	-48.53248977661133	862.2442626953125	411.2698059082031	67.20636749267578	908.2091674804688	404.2026977539062	227.1882934570312	893.3443603515625	207.5722961425781	175.8262023925781	424.11279296875	164.0980529785156	208.9219818115234	579.5242919921875	146.3670349121094	58.69677734375	36.38956069946289	109.8598937988281	150.8596801757812	266.568603515625	151.5963745117188	167.0342712402344	37.4190559387207	317.1961059570312	98.30562591552734	45.18146514892578	282.9796447753906	177.1322937011719	40.19506454467773	200.4026641845703	-14.11787700653076	40.28153991699219	107.1739807128906	72.12741088867188	497.6282958984375	499.2567443847656	11.74279499053955	744.820068359375	473.1045837402344	-105.8523101806641	136.0459289550781	344.1012268066406	14.94407844543457	363.3924560546875	467.94970703125	83.86212158203125	51.23966979980469	414.3210144042969	56.73328399658203	82.12580871582031	352.1206665039062	-19.20673179626465	73.91087341308594	423.3992614746094	-127.7066040039062	164.118408203125	270.3119506835938	
305	3.04	-65.11760711669922	950.4739379882812	218.6148529052734	19.47297859191895	954.1001586914062	103.6351470947266	-17.73424530029297	1058.585205078125	169.9978790283203	203.6986236572266	1245.899536132812	328.9344482421875	-22.68061637878418	1183.012084960938	152.3304290771484	27.90168762207031	1449.641479492188	203.6679077148438	177.6748199462891	1360.636840820312	306.3383178710938	-83.10671997070312	1333.262573242188	237.7537384033203	67.80120849609375	1402.89208984375	103.6203002929688	196.1357116699219	1420.978515625	114.1604080200195	273.5681457519531	1314.459106445312	38.78127288818359	374.6989135742188	1123.8837890625	40.54480361938477	283.6109924316406	1074.1591796875	33.89754486083984	471.6182556152344	959.7150268554688	152.0117797851562	482.1482543945312	937.5521240234375	82.31561279296875	425.2962646484375	1050.934204101562	58.15313720703125	548.2334594726562	811.0418090820312	172.2700347900391	518.796142578125	868.2413330078125	97.49798583984375	523.3302001953125	887.493408203125	165.6878814697266	-17.70288467407227	1417.254638671875	373.9766845703125	-82.00266265869141	1357.274658203125	420.5928649902344	-128.3525238037109	1074.126098632812	468.4214172363281	-143.3641204833984	1051.119873046875	404.8292846679688	8.016210556030273	895.4859008789062	511.902587890625	-75.43900299072266	866.1399536132812	519.280029296875	-123.7085876464844	1016.693786621094	483.0661010742188	31.73916625976562	740.2985229492188	537.2381591796875	28.8141040802002	800.5494995117188	542.2315673828125	-44.96088790893555	784.6542358398438	536.5860595703125	50.60391616821289	1644.531494140625	323.5498352050781	249.1609344482422	1654.516235351562	266.447265625	177.5309600830078	1660.484497070312	375.8516845703125	134.9886169433594	1641.339111328125	165.5676116943359	198.4973297119141	849.047119140625	93.25725555419922	-42.02396392822266	862.119384765625	415.9028015136719	73.59254455566406	908.3323364257812	407.896240234375	232.4165954589844	893.0202026367188	210.3776245117188	177.0575103759766	423.8983459472656	164.6844024658203	211.2273712158203	579.305908203125	147.9248046875	58.74314117431641	36.67238235473633	110.0405578613281	151.4431457519531	266.510009765625	151.9328918457031	167.0805206298828	37.38238525390625	317.2123718261719	98.33351898193359	45.17618179321289	283.0081176757812	177.0788726806641	40.12892532348633	200.3980407714844	-14.14209461212158	40.61620712280273	107.3433685302734	82.78169250488281	498.2308959960938	504.3558959960938	19.40446662902832	745.249267578125	477.7974548339844	-84.46672058105469	127.0434417724609	359.5510559082031	29.1082706451416	361.6106872558594	476.5000610351562	108.4464874267578	51.79376983642578	431.8225708007812	80.05260467529297	79.62976837158203	368.7094421386719	4.562677383422852	70.69511413574219	440.4347229003906	-107.8655700683594	152.0793304443359	285.1479187011719	
